<?xml version="1.0" encoding="utf-8"?>
<!-- Generator: Adobe Illustrator 16.0.0, SVG Export Plug-In . SVG Version: 6.00 Build 0)  -->
<!DOCTYPE svg PUBLIC "-//W3C//DTD SVG 1.1//EN" "http://www.w3.org/Graphics/SVG/1.1/DTD/svg11.dtd">
<svg version="1.1" id="Camada_1" xmlns="http://www.w3.org/2000/svg" xmlns:xlink="http://www.w3.org/1999/xlink" x="0px" y="0px"
	 width="182.75px" height="140.207px" viewBox="0 0 182.75 140.207" enable-background="new 0 0 182.75 140.207"
	 xml:space="preserve">
<rect fill-rule="evenodd" clip-rule="evenodd" fill="#DDEDF1" width="182.75" height="140.207"/>
<g>
	<path fill="#231F20" d="M16.031,55.922c1.633-0.297,3.896-0.52,6.977-0.52c3.34,0,5.789,0.705,7.385,2.041
		c1.484,1.225,2.449,3.191,2.449,5.529c0,2.375-0.742,4.342-2.152,5.678c-1.818,1.818-4.676,2.672-7.904,2.672
		c-0.854,0-1.633-0.037-2.227-0.148V80.6h-4.527V55.922z M20.559,67.574c0.557,0.148,1.299,0.186,2.227,0.186
		c3.414,0,5.492-1.67,5.492-4.602c0-2.783-1.93-4.268-5.084-4.268c-1.262,0-2.152,0.111-2.635,0.223V67.574z"/>
	<path fill="#231F20" d="M36.036,55.922c1.707-0.297,4.268-0.52,6.902-0.52c3.6,0,6.049,0.594,7.719,2.004
		c1.373,1.15,2.152,2.895,2.152,5.01c0,3.229-2.189,5.418-4.527,6.271v0.111c1.781,0.668,2.857,2.412,3.488,4.824
		c0.779,3.117,1.447,6.012,1.967,6.977h-4.713c-0.371-0.742-0.965-2.783-1.67-5.9c-0.705-3.266-1.893-4.305-4.49-4.379h-2.301V80.6
		h-4.527V55.922z M40.563,66.98h2.709c3.08,0,5.01-1.633,5.01-4.119c0-2.746-1.93-4.008-4.898-4.008
		c-1.447,0-2.375,0.111-2.82,0.223V66.98z"/>
	<path fill="#231F20" d="M78.604,67.834c0,8.387-5.084,13.174-11.986,13.174c-7.051,0-11.504-5.381-11.504-12.729
		c0-7.682,4.824-13.1,11.875-13.1C74.299,55.18,78.604,60.709,78.604,67.834z M59.938,68.205c0,5.084,2.561,9.129,6.939,9.129
		c4.416,0,6.902-4.082,6.902-9.314c0-4.713-2.338-9.166-6.902-9.166C62.35,58.854,59.938,63.047,59.938,68.205z"/>
	<path fill="#231F20" d="M101.838,79.449c-1.596,0.594-4.713,1.41-8.053,1.41c-4.23,0-7.422-1.076-9.797-3.34
		c-2.227-2.115-3.525-5.418-3.488-9.203c0-7.904,5.641-12.988,13.916-12.988c3.08,0,5.492,0.631,6.643,1.188l-1.002,3.674
		c-1.373-0.594-3.043-1.076-5.678-1.076c-5.344,0-9.092,3.154-9.092,8.98c0,5.678,3.488,9.055,8.684,9.055
		c1.633,0,2.857-0.223,3.451-0.52v-6.234h-4.416v-3.6h8.832V79.449z"/>
	<path fill="#231F20" d="M105.774,55.922c1.707-0.297,4.268-0.52,6.902-0.52c3.6,0,6.049,0.594,7.719,2.004
		c1.373,1.15,2.152,2.895,2.152,5.01c0,3.229-2.189,5.418-4.527,6.271v0.111c1.781,0.668,2.857,2.412,3.488,4.824
		c0.779,3.117,1.447,6.012,1.967,6.977h-4.713c-0.371-0.742-0.965-2.783-1.67-5.9c-0.705-3.266-1.893-4.305-4.49-4.379h-2.301V80.6
		h-4.527V55.922z M110.302,66.98h2.709c3.08,0,5.01-1.633,5.01-4.119c0-2.746-1.93-4.008-4.898-4.008
		c-1.447,0-2.375,0.111-2.82,0.223V66.98z"/>
	<path fill="#231F20" d="M131.16,73.512l-2.152,7.088h-4.713l8.016-25.012h5.826l8.127,25.012h-4.898l-2.264-7.088H131.16z
		 M138.322,70.061l-1.967-6.16c-0.482-1.521-0.891-3.229-1.262-4.676h-0.074c-0.371,1.447-0.742,3.191-1.188,4.676l-1.93,6.16
		H138.322z"/>
	<path fill="#231F20" d="M149.013,55.922c2.004-0.334,4.564-0.52,7.273-0.52c4.676,0,7.904,0.965,10.205,2.895
		c2.412,1.967,3.896,4.936,3.896,9.203c0,4.453-1.521,7.793-3.896,9.945c-2.486,2.264-6.457,3.414-11.318,3.414
		c-2.672,0-4.676-0.148-6.16-0.334V55.922z M153.577,77.111c0.631,0.111,1.596,0.111,2.523,0.111
		c5.938,0.037,9.463-3.229,9.463-9.574c0.037-5.529-3.154-8.684-8.869-8.684c-1.447,0-2.486,0.111-3.117,0.26V77.111z"/>
</g>
<g>
	<path fill="#231F20" d="M57.009,89.374c0.37-0.067,0.882-0.118,1.581-0.118c0.756,0,1.311,0.16,1.672,0.463
		c0.337,0.277,0.556,0.723,0.556,1.252c0,0.538-0.169,0.984-0.487,1.287c-0.412,0.411-1.061,0.604-1.791,0.604
		c-0.193,0-0.37-0.008-0.505-0.033v2.136h-1.025V89.374z M58.034,92.014c0.126,0.033,0.294,0.042,0.505,0.042
		c0.773,0,1.244-0.379,1.244-1.043c0-0.63-0.438-0.967-1.152-0.967c-0.285,0-0.487,0.025-0.597,0.051V92.014z"/>
	<path fill="#231F20" d="M61.71,89.374c0.387-0.067,0.967-0.118,1.563-0.118c0.815,0,1.371,0.135,1.749,0.454
		c0.312,0.261,0.487,0.655,0.487,1.135c0,0.731-0.496,1.228-1.025,1.421v0.025c0.403,0.151,0.647,0.547,0.79,1.093
		c0.177,0.706,0.328,1.362,0.446,1.581h-1.068c-0.084-0.168-0.219-0.631-0.379-1.337c-0.159-0.74-0.428-0.976-1.017-0.992h-0.521
		v2.329H61.71V89.374z M62.735,91.879h0.614c0.697,0,1.135-0.37,1.135-0.934c0-0.622-0.438-0.907-1.109-0.907
		c-0.328,0-0.539,0.024-0.64,0.05V91.879z"/>
	<path fill="#231F20" d="M71.522,92.072c0,1.9-1.151,2.984-2.716,2.984c-1.598,0-2.605-1.219-2.605-2.884
		c0-1.74,1.092-2.968,2.689-2.968C70.547,89.205,71.522,90.458,71.522,92.072z M67.293,92.156c0,1.152,0.58,2.068,1.572,2.068
		c1.001,0,1.564-0.925,1.564-2.11c0-1.067-0.529-2.076-1.564-2.076C67.84,90.038,67.293,90.988,67.293,92.156z M70.219,87.97
		l-1.051,1.009h-0.832l0.74-1.009H70.219z"/>
	<path fill="#231F20" d="M74.215,92.366v0.715h-2.144v-0.715H74.215z"/>
	<path fill="#231F20" d="M75.064,89.374c0.387-0.067,0.967-0.118,1.564-0.118c0.814,0,1.37,0.135,1.748,0.454
		c0.312,0.261,0.488,0.655,0.488,1.135c0,0.731-0.496,1.228-1.025,1.421v0.025c0.402,0.151,0.646,0.547,0.789,1.093
		c0.178,0.706,0.328,1.362,0.446,1.581h-1.067c-0.084-0.168-0.219-0.631-0.379-1.337c-0.16-0.74-0.429-0.976-1.018-0.992H76.09
		v2.329h-1.025V89.374z M76.09,91.879h0.614c0.698,0,1.136-0.37,1.136-0.934c0-0.622-0.438-0.907-1.11-0.907
		c-0.328,0-0.538,0.024-0.64,0.05V91.879z"/>
	<path fill="#231F20" d="M83.02,92.451h-2.136v1.664h2.388v0.85H79.85v-5.667h3.296v0.85h-2.262v1.463h2.136V92.451z"/>
	<path fill="#231F20" d="M85.215,89.298v5.667h-1.033v-5.667H85.215z"/>
	<path fill="#231F20" d="M87.486,90.164h-1.615v-0.866h4.279v0.866H88.52v4.801h-1.033V90.164z"/>
	<path fill="#231F20" d="M95.844,92.072c0,1.9-1.151,2.984-2.715,2.984c-1.598,0-2.606-1.219-2.606-2.884
		c0-1.74,1.093-2.968,2.69-2.968C94.869,89.205,95.844,90.458,95.844,92.072z M91.615,92.156c0,1.152,0.58,2.068,1.572,2.068
		c1,0,1.564-0.925,1.564-2.11c0-1.067-0.53-2.076-1.564-2.076C92.162,90.038,91.615,90.988,91.615,92.156z"/>
	<path fill="#231F20" d="M96.737,89.374c0.387-0.067,0.967-0.118,1.563-0.118c0.815,0,1.371,0.135,1.749,0.454
		c0.312,0.261,0.487,0.655,0.487,1.135c0,0.731-0.496,1.228-1.025,1.421v0.025c0.403,0.151,0.647,0.547,0.79,1.093
		c0.177,0.706,0.328,1.362,0.446,1.581H99.68c-0.084-0.168-0.219-0.631-0.379-1.337c-0.159-0.74-0.428-0.976-1.017-0.992h-0.521
		v2.329h-1.025V89.374z M97.763,91.879h0.614c0.697,0,1.135-0.37,1.135-0.934c0-0.622-0.438-0.907-1.109-0.907
		c-0.328,0-0.539,0.024-0.64,0.05V91.879z"/>
	<path fill="#231F20" d="M102.557,89.298v5.667h-1.034v-5.667H102.557z"/>
	<path fill="#231F20" d="M104.877,93.358l-0.487,1.606h-1.067l1.816-5.667h1.319l1.841,5.667h-1.109l-0.513-1.606H104.877z
		 M106.5,92.577l-0.445-1.396c-0.109-0.345-0.202-0.731-0.286-1.06h-0.017c-0.084,0.328-0.168,0.723-0.27,1.06l-0.438,1.396H106.5z"
		/>
	<path fill="#231F20" d="M110.832,89.374c0.453-0.076,1.033-0.118,1.647-0.118c1.06,0,1.791,0.219,2.312,0.656
		c0.546,0.445,0.883,1.118,0.883,2.085c0,1.009-0.345,1.766-0.883,2.253c-0.563,0.513-1.464,0.773-2.564,0.773
		c-0.605,0-1.06-0.033-1.396-0.075V89.374z M111.865,94.174c0.144,0.025,0.362,0.025,0.572,0.025
		c1.346,0.009,2.145-0.731,2.145-2.169c0.008-1.253-0.715-1.968-2.01-1.968c-0.328,0-0.563,0.025-0.707,0.06V94.174z"/>
	<path fill="#231F20" d="M119.746,92.451h-2.137v1.664h2.389v0.85h-3.422v-5.667h3.295v0.85h-2.262v1.463h2.137V92.451z"/>
	<path fill="#231F20" d="M127.188,94.704c-0.362,0.135-1.067,0.319-1.825,0.319c-0.958,0-1.682-0.244-2.219-0.757
		c-0.505-0.479-0.799-1.228-0.791-2.085c0-1.791,1.278-2.942,3.153-2.942c0.698,0,1.244,0.143,1.505,0.269l-0.227,0.833
		c-0.312-0.135-0.689-0.244-1.287-0.244c-1.211,0-2.06,0.715-2.06,2.034c0,1.287,0.79,2.052,1.968,2.052
		c0.369,0,0.646-0.051,0.781-0.117v-1.413h-1v-0.815h2.001V94.704z"/>
	<path fill="#231F20" d="M128.249,89.374c0.387-0.067,0.967-0.118,1.563-0.118c0.815,0,1.371,0.135,1.749,0.454
		c0.312,0.261,0.487,0.655,0.487,1.135c0,0.731-0.496,1.228-1.025,1.421v0.025c0.403,0.151,0.647,0.547,0.79,1.093
		c0.177,0.706,0.328,1.362,0.446,1.581h-1.068c-0.084-0.168-0.219-0.631-0.379-1.337c-0.159-0.74-0.428-0.976-1.017-0.992h-0.521
		v2.329h-1.025V89.374z M129.274,91.879h0.614c0.697,0,1.135-0.37,1.135-0.934c0-0.622-0.438-0.907-1.109-0.907
		c-0.328,0-0.539,0.024-0.64,0.05V91.879z"/>
	<path fill="#231F20" d="M134.17,93.358l-0.488,1.606h-1.067l1.815-5.667h1.32l1.842,5.667h-1.11l-0.513-1.606H134.17z
		 M135.792,92.577l-0.445-1.396c-0.109-0.345-0.202-0.731-0.286-1.06h-0.017c-0.084,0.328-0.169,0.723-0.269,1.06l-0.438,1.396
		H135.792z"/>
	<path fill="#231F20" d="M138.383,89.374c0.454-0.076,1.034-0.118,1.648-0.118c1.059,0,1.791,0.219,2.312,0.656
		c0.546,0.445,0.883,1.118,0.883,2.085c0,1.009-0.346,1.766-0.883,2.253c-0.564,0.513-1.463,0.773-2.564,0.773
		c-0.605,0-1.061-0.033-1.396-0.075V89.374z M139.417,94.174c0.144,0.025,0.362,0.025,0.571,0.025
		c1.346,0.009,2.145-0.731,2.145-2.169c0.008-1.253-0.715-1.968-2.01-1.968c-0.328,0-0.562,0.025-0.706,0.06V94.174z"/>
	<path fill="#231F20" d="M145.152,89.298v3.305c0,1.109,0.463,1.622,1.16,1.622c0.749,0,1.194-0.513,1.194-1.622v-3.305h1.034v3.237
		c0,1.748-0.899,2.521-2.262,2.521c-1.312,0-2.16-0.731-2.16-2.514v-3.245H145.152z"/>
	<path fill="#231F20" d="M150.863,93.358l-0.488,1.606h-1.067l1.815-5.667h1.32l1.842,5.667h-1.11l-0.513-1.606H150.863z
		 M152.485,92.577l-0.445-1.396c-0.109-0.345-0.202-0.731-0.286-1.06h-0.017c-0.084,0.328-0.169,0.723-0.269,1.06l-0.438,1.396
		H152.485z"/>
	<path fill="#231F20" d="M159.138,94.797c-0.235,0.117-0.731,0.243-1.396,0.252l-0.177,0.311c0.319,0.067,0.597,0.286,0.597,0.656
		c0,0.547-0.479,0.74-0.933,0.74c-0.244,0-0.496-0.06-0.673-0.151l0.151-0.463c0.126,0.067,0.303,0.118,0.471,0.118
		c0.177,0,0.319-0.067,0.319-0.235c0-0.186-0.227-0.286-0.656-0.337l0.337-0.673c-1.505-0.185-2.396-1.244-2.396-2.816
		c0-1.866,1.295-2.993,3.026-2.993c0.681,0,1.169,0.144,1.378,0.253l-0.227,0.823c-0.269-0.117-0.639-0.219-1.109-0.219
		c-1.152,0-1.984,0.724-1.984,2.086c0,1.244,0.731,2.043,1.977,2.043c0.411,0,0.857-0.084,1.126-0.211L159.138,94.797z"/>
	<path fill="#231F20" d="M161.19,93.358l-0.487,1.606h-1.068l1.816-5.667h1.32l1.841,5.667h-1.11l-0.512-1.606H161.19z
		 M161.039,88.953c-0.017-0.622,0.227-0.976,0.613-0.976c0.211,0,0.361,0.076,0.521,0.169c0.143,0.084,0.27,0.159,0.387,0.159
		c0.135,0,0.202-0.075,0.228-0.345h0.496c0.009,0.647-0.21,0.941-0.622,0.941c-0.211,0-0.37-0.066-0.529-0.159
		c-0.16-0.084-0.262-0.151-0.379-0.151s-0.193,0.126-0.211,0.361H161.039z M162.812,92.577l-0.445-1.396
		c-0.109-0.345-0.201-0.731-0.285-1.06h-0.018c-0.084,0.328-0.168,0.723-0.269,1.06l-0.438,1.396H162.812z"/>
	<path fill="#231F20" d="M170.432,92.072c0,1.9-1.152,2.984-2.715,2.984c-1.598,0-2.607-1.219-2.607-2.884
		c0-1.74,1.094-2.968,2.691-2.968C169.457,89.205,170.432,90.458,170.432,92.072z M166.203,92.156c0,1.152,0.58,2.068,1.572,2.068
		c1,0,1.563-0.925,1.563-2.11c0-1.067-0.53-2.076-1.563-2.076C166.75,90.038,166.203,90.988,166.203,92.156z"/>
</g>
</svg>
